<?xml version="1.0" standalone="no"?>
<!DOCTYPE svg PUBLIC "-//W3C//DTD SVG 20010904//EN"
 "http://www.w3.org/TR/2001/REC-SVG-20010904/DTD/svg10.dtd">
<svg version="1.0" xmlns="http://www.w3.org/2000/svg"
 width="1000.000000pt" height="1000.000000pt" viewBox="0 0 1000.000000 1000.000000"
 preserveAspectRatio="xMidYMid meet">
<metadata>
Created by potrace 1.14, written by Peter Selinger 2001-2017
</metadata>
<g transform="translate(0.000000,1000.000000) scale(0.100000,-0.100000)"
fill="#000000" stroke="none">
<path d="M5995 9299 c-460 -31 -870 -214 -1223 -543 l-63 -59 -77 75 c-138
133 -291 238 -477 328 -245 119 -440 169 -755 195 l-75 6 -82 -108 c-112 -149
-155 -218 -224 -358 -289 -590 -253 -1305 95 -1859 31 -48 56 -89 56 -91 0 -1
-71 -5 -157 -9 -86 -3 -236 -14 -332 -23 -115 -11 -280 -17 -476 -17 -343 -1
-392 5 -544 74 -147 66 -232 83 -381 77 -99 -4 -141 -10 -205 -32 -264 -88
-431 -261 -510 -530 -22 -74 -27 -111 -28 -205 -1 -135 13 -196 79 -349 62
-141 74 -209 80 -456 5 -166 1 -263 -16 -465 -27 -327 -37 -690 -21 -840 43
-408 171 -819 362 -1161 191 -344 454 -671 733 -914 523 -456 1028 -697 1691
-807 131 -21 629 -16 919 10 412 38 742 24 880 -35 34 -14 106 -42 161 -61 89
-32 113 -36 227 -40 115 -4 135 -2 219 22 189 54 333 147 416 268 114 166 153
277 162 467 l6 134 110 22 c297 60 651 188 883 319 639 359 1108 876 1337
1471 57 148 91 268 174 605 116 473 195 673 322 815 87 98 143 190 177 292 22
67 25 96 26 208 0 107 -4 145 -23 212 -37 131 -118 250 -236 343 -167 132
-337 177 -568 151 -91 -10 -108 -9 -224 14 -150 31 -307 82 -520 170 -446 186
-623 247 -833 290 -197 40 -296 49 -532 50 -126 0 -228 1 -228 2 0 2 15 26 34
55 102 161 189 364 237 554 110 437 66 901 -125 1308 -53 113 -107 201 -203
334 -69 94 -77 102 -106 101 -18 -1 -81 -5 -142 -10z m106 -336 c110 -170 196
-381 241 -589 20 -97 23 -135 22 -334 0 -193 -3 -239 -22 -324 -63 -284 -187
-541 -360 -749 -53 -63 -55 -65 -140 -87 -230 -60 -470 -149 -654 -241 -77
-38 -99 -46 -93 -32 66 161 107 315 134 496 18 125 26 151 141 447 67 173 124
320 127 325 23 51 -46 -63 -134 -220 -59 -106 -111 -191 -115 -188 -5 2 -8 26
-8 53 0 110 -56 361 -117 525 -38 101 -122 267 -187 365 l-55 85 42 43 c157
161 374 305 590 391 143 57 368 108 490 110 l48 1 50 -77z m-2451 37 c359 -73
704 -276 937 -554 411 -489 514 -1140 273 -1721 -42 -101 -136 -275 -148 -275
-4 0 -173 315 -377 699 -203 385 -371 698 -373 696 -2 -2 94 -279 212 -616
119 -337 214 -614 213 -616 -2 -2 -52 17 -110 41 -196 83 -427 149 -660 191
l-97 17 -52 62 c-163 195 -291 460 -347 719 -65 301 -42 627 65 929 36 101
134 288 200 382 l56 78 57 -7 c31 -3 99 -15 151 -25z m-2243 -2399 c32 -11 92
-33 133 -51 228 -97 592 -122 1085 -76 528 50 767 40 1120 -44 577 -138 1173
-518 1547 -986 358 -447 574 -944 639 -1469 18 -148 14 -456 -10 -715 -48
-505 -36 -852 35 -1075 9 -27 34 -92 55 -142 49 -115 58 -187 34 -269 -35
-123 -101 -205 -210 -259 -106 -52 -191 -58 -295 -20 -339 124 -422 139 -755
138 -121 0 -305 -7 -410 -16 -495 -44 -654 -46 -891 -12 -562 79 -1149 375
-1596 803 -289 277 -561 701 -708 1102 -52 141 -112 376 -136 530 -27 169 -25
521 6 835 15 159 23 313 23 455 2 324 -25 489 -111 695 -44 103 -47 116 -47
200 0 82 3 97 32 156 45 91 99 149 176 188 109 55 186 64 284 32z m5364 -1
c263 -27 519 -102 889 -260 476 -204 711 -262 1040 -257 173 2 176 2 226 -25
28 -15 77 -55 108 -90 68 -74 90 -136 90 -249 0 -97 -26 -153 -123 -264 -168
-193 -270 -441 -391 -953 -58 -244 -109 -431 -141 -518 -184 -497 -541 -929
-1038 -1256 -208 -136 -436 -239 -692 -313 -153 -44 -361 -87 -403 -83 -30 3
-31 5 -44 73 -7 39 -15 153 -18 255 -6 177 -2 254 38 820 52 748 -173 1473
-650 2094 -164 212 -386 441 -562 578 -34 27 -34 28 -15 42 44 33 236 137 325
176 250 111 531 188 812 224 127 17 411 20 549 6z"/>
</g>
</svg>
